<svg xmlns="http://www.w3.org/2000/svg" viewBox="0 0 500 500"><defs><style>.a{fill:#162030;}.b{fill:#1f2937;}.c{fill:#132434;}.d,.e,.i,.k{fill:none;}.d,.e{stroke:#27debf;stroke-width:0.88px;}.d,.i{stroke-miterlimit:10;}.e,.k{stroke-linecap:round;stroke-linejoin:round;}.f{fill:#263238;}.g{fill:#37474f;}.h{fill:#455a64;}.i,.k{stroke:#fafafa;stroke-width:0.74px;}.j{opacity:0.2;}.l{opacity:0.1;}.m{fill:#27debf;}.n{opacity:0.5;}.o{opacity:0.23;}.p{opacity:0.38;}.q{opacity:0.4;}.r{opacity:0.3;}.s{opacity:0.45;}.t,.v{opacity:0.7;}.u,.v,.x{fill:#fff;}.w{fill:#e0e0e0;}.x{opacity:0.65;}.y{fill:#ffa8a7;}.z{fill:#f5f5f5;}.aa{fill:#f28f8f;}</style></defs><ellipse class="a" cx="253.7" cy="341.8" rx="235.3" ry="135.8"/><ellipse class="b" cx="408.9" cy="369.8" rx="66.7" ry="38.5"/><polygon class="c" points="239.9 390.6 164.7 347.1 250.7 297.5 326 340.9 239.9 390.6"/><polygon class="c" points="34.9 377.2 132 433.2 213.5 386.2 116.4 330.2 34.9 377.2"/><path class="d" d="M323,310c-.7-12-6-36,1-58.2,3.6-11.2,11.7-23.1,23.9-26.5,4.3-1.2,9.6-1,11.7,3.9a5.8,5.8,0,0,1,.6,2.6c.3,3.7-1.4,7-3.3,10-4.3,7-9.8,13.2-14.1,20.1a83.7,83.7,0,0,0-6,11.5"/><path class="d" d="M322.7,317.8c0,1.4.4,3.2.1,4.6a1.7,1.7,0,0,0,0,1.2c.2.4.7.7,1,.4a11.6,11.6,0,0,0,.6-2.2c.3-.8.8-1.6,1.2-2.4s1.6-3.2,2.5-4.8a93.9,93.9,0,0,1,6.2-9.3,84.3,84.3,0,0,1,15.5-15.5c6.3-4.8,13.2-8.7,19.4-13.8a12.6,12.6,0,0,0,4.4-5.3c1.2-3.3-.4-7.2-3.1-9.3a13.9,13.9,0,0,0-9.9-2.6,28.1,28.1,0,0,0-11.5,3.7c-7.6,4.1-12.7,10.4-16.9,17.6a75.9,75.9,0,0,0-9.5,31.5Z"/><path class="e" d="M365.6,264.8c-14.2,4-35.3,20.4-42.9,50.7"/><path class="e" d="M351,231.8c-7.7,6.1-26,25.5-28.3,56.8"/><path class="f" d="M319.9,165.1,264.3,133a3.3,3.3,0,0,0-3-.3l-4,2.3a3.2,3.2,0,0,0-1.3,2.8V290a9.5,9.5,0,0,0,4.3,7.4l55.6,32a2.8,2.8,0,0,0,3,.3l4-2.3a2.9,2.9,0,0,0,1.3-2.7V172.5A9.5,9.5,0,0,0,319.9,165.1Z"/><path class="f" d="M268,292.6l-4,2.3v12.7a2.2,2.2,0,0,0,1.1,1.8l1.9,1.1a2.6,2.6,0,0,0,2.1,0l1.9-1.1a3.2,3.2,0,0,0,1.4-1.8l3.6-10.4Z"/><path class="g" d="M264,307.6a2.2,2.2,0,0,0,1.1,1.8l1.9,1.1a.9.9,0,0,0,1.4-.5l3.6-10.4-8-4.7Z"/><path class="f" d="M308.1,315.7l-4,2.3v12.7a2.2,2.2,0,0,0,1.1,1.8l1.9,1.1a2.6,2.6,0,0,0,2.1,0l1.9-1.1a3.2,3.2,0,0,0,1.4-1.8l3.6-10.4Z"/><path class="g" d="M304.1,330.7a2.2,2.2,0,0,0,1.1,1.8l1.9,1.1a1,1,0,0,0,1.4-.5l3.6-10.5-8-4.6Z"/><path class="g" d="M260.6,135.4l55.6,32.1a9.5,9.5,0,0,1,4.2,7.4V327.1a2.5,2.5,0,0,1-4.2,2.4l-55.6-32a9.5,9.5,0,0,1-4.3-7.4V137.9a2.6,2.6,0,0,1,4.3-2.5Z"/><polygon class="h" points="179.8 343.5 240 378.2 324.2 329.6 320.2 327.3 260 292.6 179.8 338.8 179.8 343.5"/><polygon class="f" points="240 378.2 240 373.6 324.2 325 324.2 329.6 240 378.2"/><path class="i" d="M240,371.3c11.3-17.1,10.7-47.1,9.7-52.2,0,0,4.7,31.8,10.6,40.9"/><path class="i" d="M251.7,330.6c1.9,9.3,23.9,15.8,23.9,15.8"/><path class="i" d="M249.5,339.9a2.3,2.3,0,0,1,4.3.7s.3-4.5,2.9-3.2"/><path class="i" d="M248.7,346.4c1.1-2.4,5.3-3.7,7.1,2,0,0,.3-10.2,7-7.1"/><path class="i" d="M246.7,355.5c2.4-4.5,8.9-6.4,10.6-2.1.1-5.3,6-11.8,13.3-8.7"/><path class="i" d="M242.7,366.6c2.8-5.1,9.6-14.3,15.6-10.6"/><polygon class="f" points="316.1 278.7 316.1 283.3 240 327.3 179.8 292.6 179.8 287.9 256 243.9 316.1 278.7"/><polygon class="h" points="316.1 278.7 240 322.6 179.8 287.9 256 243.9 316.1 278.7"/><polygon class="f" points="316.1 227.7 316.1 232.4 240 276.3 179.8 241.6 179.8 237 256 193 316.1 227.7"/><polygon class="h" points="316.1 227.7 240 271.7 179.8 237 256 193 316.1 227.7"/><path class="f" d="M239.7,211.3l-55.6-32a2.8,2.8,0,0,0-3-.3l-4,2.3a2.9,2.9,0,0,0-1.3,2.8V336.2a9.2,9.2,0,0,0,4.3,7.4l55.6,32.1a3,3,0,0,0,3,.3l4-2.3a3,3,0,0,0,1.3-2.8V218.7A9.5,9.5,0,0,0,239.7,211.3Z"/><polygon class="j" points="240 234.7 244 232.4 244 218.5 239.9 220.8 240 234.7"/><polygon class="j" points="320.2 188.4 324.2 186.1 324.2 172.2 320.2 174.5 320.2 188.4"/><path class="f" d="M187.8,338.8l-4,2.4v12.6a2.5,2.5,0,0,0,1.1,1.9l1.9,1.1a2.6,2.6,0,0,0,2.1,0l1.9-1.1a5.2,5.2,0,0,0,1.5-1.8l3.6-10.4Z"/><path class="g" d="M183.8,353.8a2.5,2.5,0,0,0,1.1,1.9l1.9,1.1a1,1,0,0,0,1.4-.6l3.6-10.4-8-4.6Z"/><path class="f" d="M227.9,361.9l-4,2.4v12.6a2.5,2.5,0,0,0,1.1,1.9l1.9,1a2.2,2.2,0,0,0,2.1.1l1.9-1.1a4,4,0,0,0,1.4-1.8l3.7-10.4Z"/><path class="g" d="M223.9,376.9a2.5,2.5,0,0,0,1.1,1.9l1.9,1a.9.9,0,0,0,1.4-.5l3.6-10.4-8-4.6Z"/><path class="g" d="M180.1,181.6l55.6,32.1a9.4,9.4,0,0,1,4.3,7.4V378.2l-4.3-2.5-55.6-32.1a9.2,9.2,0,0,1-4.3-7.4V184.1a2.9,2.9,0,0,1,1.3-2.8A3,3,0,0,1,180.1,181.6Z"/><path class="j" d="M235.7,213.7l-55.6-32.1a3,3,0,0,0-3-.3,2.9,2.9,0,0,0-1.3,2.8v13.5L240,234.7V221.1A9.4,9.4,0,0,0,235.7,213.7Z"/><polyline class="k" points="268 206.9 312.1 181.4 312.1 227.7"/><polyline class="k" points="304.1 216.2 312.1 181.4 296.1 209.2"/><line class="k" x1="312.1" y1="181.4" x2="288.1" y2="204.6"/><path class="k" d="M312.1,220.3c0-6.4-7.4-6.8-7.4-6.8a7.5,7.5,0,0,0-2.4-7.2c-2.4-2-4-.9-4.5-.1s.5-5.9-4.6-6.5c0,0,3.4-6.3,0-7.3"/><path class="k" d="M312.1,210.4c-.2-3.3-2.8-7.6-5.4-5.5,0,0,.7-7.3-4.5-6.3,0,0,2.5-6.8-2.6-5.1,0,0,3.6-4.6.8-5.3"/><path class="g" d="M333.7,165.2q0-1.3-1.8-2.4l-59.6-34.4a9.1,9.1,0,0,0-8.5,0l-91.7,52.9a3.1,3.1,0,0,0-1.8,2.5v4.6a3.1,3.1,0,0,0,1.8,2.5l59.6,34.4a9.8,9.8,0,0,0,8.5,0l91.7-53a2.8,2.8,0,0,0,1.8-2.4Z"/><path class="h" d="M231.7,220.6l-59.6-34.4c-2.4-1.3-2.4-3.5,0-4.9l91.7-52.9a9.1,9.1,0,0,1,8.5,0l59.6,34.4c2.4,1.3,2.4,3.5,0,4.9l-91.7,52.9A9.1,9.1,0,0,1,231.7,220.6Z"/><polygon class="l" points="320.2 179.1 292.1 213.8 244 241.6 244 223.1 320.2 179.1"/><polygon class="l" points="316.1 232.4 292.1 264.8 244 292.6 244 274 316.1 232.4"/><polygon class="l" points="316.1 283.3 292.1 315.7 244 343.5 244 325 316.1 283.3"/><polygon class="m" points="205.8 384.4 132 427 49 379 122.7 336.4 205.8 384.4"/><polygon class="n" points="205.8 384.4 132 427 49 379 122.7 336.4 205.8 384.4"/><polygon class="m" points="122.7 278.7 122.7 336.4 49 379 49 321.2 122.7 278.7"/><polygon class="o" points="122.7 278.7 122.7 336.4 49 379 49 321.2 122.7 278.7"/><polygon class="m" points="132 369.3 132 427 49 379 49 321.2 132 369.3"/><polygon class="p" points="132 369.3 132 427 49 379 49 321.2 132 369.3"/><polygon class="m" points="205.8 326.7 205.8 384.4 122.7 336.4 122.7 278.7 205.8 326.7"/><polygon class="q" points="205.8 326.7 205.8 384.4 122.7 336.4 122.7 278.7 205.8 326.7"/><polygon class="m" points="205.8 384.4 205.8 326.7 132 369.3 132 427 205.8 384.4"/><polygon class="o" points="205.8 384.4 205.8 326.7 132 369.3 132 427 205.8 384.4"/><polygon class="m" points="122.7 278.7 122.8 246.7 205.7 294.8 205.8 326.7 122.7 278.7"/><polygon class="j" points="122.7 278.7 122.8 246.7 205.7 294.8 205.8 326.7 122.7 278.7"/><polygon class="m" points="132 369.3 138.9 341.3 212 299.1 205.8 326.7 132 369.3"/><polygon class="r" points="132 369.3 138.9 341.3 212 299.1 205.8 326.7 132 369.3"/><polygon class="m" points="49 321.2 40.2 292.2 113.9 249.7 122.7 278.7 49 321.2"/><polygon class="l" points="49 321.2 40.2 292.2 113.9 249.7 122.7 278.7 49 321.2"/><polygon class="m" points="49 321.2 31.6 297.3 114.7 345.3 132 369.3 49 321.2"/><polygon class="s" points="49 321.2 31.6 297.3 114.7 345.3 132 369.3 49 321.2"/><g class="t"><path class="u" d="M153.7,409.9a.5.5,0,0,1-.4-.5V399.2a.4.4,0,0,1,.4-.4.5.5,0,0,1,.5.4v10.2A.5.5,0,0,1,153.7,409.9Z"/><path class="u" d="M152.4,402.8h-.2a.4.4,0,0,1-.2-.6l1.6-3.7,1.8,2.1c.2.2.2.5,0,.6a.5.5,0,0,1-.7,0l-.8-1-1.1,2.4C152.8,402.7,152.6,402.8,152.4,402.8Z"/><path class="u" d="M157.9,407.5a.5.5,0,0,1-.4-.5V396.9a.5.5,0,0,1,.4-.5.5.5,0,0,1,.5.5V407A.5.5,0,0,1,157.9,407.5Z"/><path class="u" d="M156.6,400.4h-.2a.4.4,0,0,1-.2-.6l1.6-3.7,1.8,2.1a.5.5,0,0,1,0,.6.5.5,0,0,1-.7,0l-.8-1-1.1,2.4C156.9,400.3,156.8,400.4,156.6,400.4Z"/></g><g class="t"><path class="u" d="M141.7,416.8l-.5-.2a1.1,1.1,0,0,1-.6-1.1v-1.2a.5.5,0,0,1,.5-.5.5.5,0,0,1,.4.5v1.2a.4.4,0,0,0,.1.3h.3a2.9,2.9,0,0,0,.8-2.1v-5.2a.5.5,0,0,1,.5-.4c.2,0,.5.2.5.4v5.2a3.4,3.4,0,0,1-1.3,2.8Z"/><path class="u" d="M136.9,412.6v-.8a13,13,0,0,1,5.8-10.1,4.7,4.7,0,0,1,4.4-.4,4.4,4.4,0,0,1,1.8,4v.3Zm8.5-10.8a5.5,5.5,0,0,0-2.3.7,12.3,12.3,0,0,0-5.3,8.5l10.2-5.9a3.3,3.3,0,0,0-1.4-3A2.4,2.4,0,0,0,145.4,401.8Z"/></g><polygon class="v" points="31.6 297.3 114.7 345.3 132 369.3 113.8 346.2 31.6 297.3"/><polygon class="v" points="205.8 326.7 132 369.3 132 427 133.4 370.5 205.8 326.7"/><path class="w" d="M97.5,303.6c7.6-1.1,14.6-6,19-12.1a29.1,29.1,0,0,0,4.5-9.6,20.7,20.7,0,0,0,.5-9.9c-1.4-5.4-6.5-8.7-11.9-9.4a18,18,0,0,0-8,.8,13.6,13.6,0,0,0-6.7,5.1,8.4,8.4,0,0,0-1.9,4.3,2.5,2.5,0,0,0,2.2,2.5,7.3,7.3,0,0,0,4.6-1.1,15.3,15.3,0,0,0,4.3-3.7,29.4,29.4,0,0,0,5.5-10.5,22.5,22.5,0,0,0,.1-10c-.8-3.4-2.1-6.8-4.6-9.2a16,16,0,0,0-9.7-4.3,23.4,23.4,0,0,0-10.8,1,12,12,0,0,0-4.1,2.3c-.8.8-1.8,2.1-1.5,3.4s2.3,1.9,3.6,1.7a10.3,10.3,0,0,0,5-2.7,22.3,22.3,0,0,0,3.7-5,8.2,8.2,0,0,0,1.2-4.3c-.2-6.4-7.2-10.5-12.7-11.7a13.6,13.6,0,0,0-4.5-.2c-.5,0-.2.8.2.8a15.8,15.8,0,0,1,8.5,1.9,15,15,0,0,1,6.2,5.5,7.8,7.8,0,0,1-.3,7.8,22.8,22.8,0,0,1-3.6,4.6c-1.2,1.1-3,2.3-4.7,2.2a1.7,1.7,0,0,1-1.3-.8,2.4,2.4,0,0,1,.6-1.9,8.5,8.5,0,0,1,3.2-2.1,20.9,20.9,0,0,1,9.5-1.5,16.7,16.7,0,0,1,9.4,3c2.5,1.8,3.9,4.7,4.8,7.7a21.8,21.8,0,0,1,.9,9.5c-.4,3.2-2,6.3-3.6,9s-4.2,6-7.7,7.2c-.8.3-2.6.8-3-.5s.7-2.8,1.3-3.8a12.6,12.6,0,0,1,5.8-4.9,16.5,16.5,0,0,1,7.3-1.1c4.7.4,9.5,2.8,11.1,7.5a16.7,16.7,0,0,1,.3,8.6,29,29,0,0,1-3.3,8.9A31.8,31.8,0,0,1,102,301.5a36.1,36.1,0,0,1-4.6,1.7c-.1,0,0,.4.1.4Z"/><path class="m" d="M65.7,216.8c-4-.3-9.5,2.9-7.5,5.2s7.2-1.5,7.2-1.5-.5,4.7,1.2,5.2,3.9-3.9,2.3-6.7a5.1,5.1,0,0,0,4.9-.7c2.5-1.8-.1-3.4-3.5-3.1,0,0,2.4-8-2.5-6.5C65.4,209.4,64.5,212.3,65.7,216.8Z"/><path class="x" d="M65.7,216.8c-4-.3-9.5,2.9-7.5,5.2s7.2-1.5,7.2-1.5-.5,4.7,1.2,5.2,3.9-3.9,2.3-6.7a5.1,5.1,0,0,0,4.9-.7c2.5-1.8-.1-3.4-3.5-3.1,0,0,2.4-8-2.5-6.5C65.4,209.4,64.5,212.3,65.7,216.8Z"/><path class="h" d="M69.5,218.5l-.7-.6-1.1-.8-1.1-.7-.6-.3-1.1-.2c-.3.1-.6.5-.4.8a3.4,3.4,0,0,0,1.1.7l.5.3,1.1.7,1,.7a6.2,6.2,0,0,0,1.7,1.1h.2C70.5,219.7,69.8,218.8,69.5,218.5Z"/><path class="y" d="M388.3,106.8c-4.4,5.9-10.2,38.2-12.4,48.6-10.7-.3-24.9-.8-30.3-1.4s-18.8-1.9-25.1-1c-15.6,2-15,12.2-14.6,14.9s2.6,4.5,11,2.6a21.7,21.7,0,0,1,5.7-.7c.8,0,2.5-.4,3.1.3s-1.8,2.6-2.6,3.1a5.1,5.1,0,0,0-2.5,2.9,1.4,1.4,0,0,0,.4,1.4,1.9,1.9,0,0,0,1.3,0,44.6,44.6,0,0,0,11-4.2,38.6,38.6,0,0,1,4.1-2c2.2-.7,4.4-.3,6.6-.3,4.7,0,29.5,2.5,40.5,3.6,7.6.8,8.5-6.7,11.1-14.4,3.2-9.4,10.9-59.2,10.9-59.2C398.8,99.9,393.5,99.8,388.3,106.8Z"/><path class="g" d="M406.6,100.2c-3.7-.7-12-1.7-16.5,3.4s-5.6,10.3-7.6,18-5.5,21.3-5.5,21.3,5.9,8.4,24.1,6Z"/><polygon class="y" points="452.4 364.6 439.6 364.7 435.9 336.8 452.1 336.2 452.4 364.6"/><path class="y" d="M409.9,350.7c-2.2,3.8-9.2,3.5-15.1,2.2l-.7-27.4,17.2-.7Z"/><path class="m" d="M451.6,188.7c.4,11.8-1.1,81.9-1.1,81.9.4,3.4,3.9,9.3,4.7,21.6,1,17.8-2.6,55.8-2.6,55.8s-7.4,3.9-15.3.9c0,0-8-55-11-72.5-2.5-15.4-5.8-56.4-5.8-56.4l-6.3,52.6a84,84,0,0,1,1.4,18.9c-.2,8.2-4.9,47.9-4.9,47.9a28.8,28.8,0,0,1-16.4.4s-3.8-61.6-4.3-69.1-.1-83.7-.1-83.7Z"/><path class="j" d="M420.5,220s-11.2-3.2-18.8-10c0,0,3.6,6.1,13.7,11.5l-.6,46Z"/><path class="f" d="M425,387.9c-.5.4-.2,3.2.3,3.9s3.5,3.1,8.8,3.3,9.6-.7,12.5-2.7,4.2-4.1,4.4-7-.3-5.7,1-7.9,3.1-4.5,3.5-5.6-.2-5.9-.2-5.9Z"/><path class="h" d="M437.8,362.2a8.9,8.9,0,0,1-.5,3.2,26.6,26.6,0,0,1-2.8,6.5,19.6,19.6,0,0,1-2,3c-1.5,1.9-3.3,3.5-4.8,5.3s-2.9,4-2.9,6.3c-.1,4,4.3,5.2,7.6,5.6a24.7,24.7,0,0,0,10.8-.9,10,10,0,0,0,6.9-8.2c.1-1.1,0-2.2.1-3.4a15.2,15.2,0,0,1,2.8-7,21.6,21.6,0,0,0,2.2-3.9c1-2.5,0-5.2-.7-7.6s-1.4-4.5-2.1-4.2,0,1.2-.8,1.9-.9,2.4-1.9,3.3a21.5,21.5,0,0,0,.6-2.9,1.2,1.2,0,0,0-.3-1.1c-.2-.3-.7-.4-1.2-.6a38.6,38.6,0,0,0-4.9-.9,14.9,14.9,0,0,0-4.7.2,1.9,1.9,0,0,0-1.1.7,2.6,2.6,0,0,0-.4,1.4C437.7,359.5,437.8,361.1,437.8,362.2Z"/><path class="z" d="M434,372.7c1.4-1.1,4.7-1.3,6.5-1.2a12.3,12.3,0,0,1,5.3,1.6,1.1,1.1,0,0,0,1.5-.1h0a1.2,1.2,0,0,0-.2-1.7,11,11,0,0,0-5.9-1.9c-4.4-.2-5.7.6-5.7.6S433.5,371.4,434,372.7Z"/><path class="z" d="M430.8,376.9c1.8-1.1,5.4-1.1,7.2-1a10.2,10.2,0,0,1,5.1,1.7,1.2,1.2,0,0,0,1.5-.2h0a1.1,1.1,0,0,0-.2-1.7,11.4,11.4,0,0,0-6-2c-4.4-.2-5.5.8-5.5.8S431,375.3,430.8,376.9Z"/><path class="z" d="M442.8,365a10.5,10.5,0,0,0-5.5.7c-.8.5-1.3,1.8-.8,2.1a10.6,10.6,0,0,1,5-.9,14.5,14.5,0,0,1,4.8,1.1l1.3.6a1,1,0,0,0,1.4-.5h0a1.1,1.1,0,0,0-.4-1.3A15.2,15.2,0,0,0,442.8,365Z"/><path class="f" d="M365.5,367.8a5,5,0,0,0,.1,3.6c.4,1,5.7,4.4,13.1,4.2a29.5,29.5,0,0,0,15.4-4.6c2.9-1.7,5.8-1.9,9.4-1.9s8.6-1.6,9.4-3.3.1-4.6.1-4.6Z"/><path class="h" d="M396.2,346.3h-.5a1.8,1.8,0,0,0-1-.1,1.3,1.3,0,0,0-.9.5,19.4,19.4,0,0,0-2.1,2.9c-1.6,2.4-4.9,4.3-8.6,6.1s-4.8,2-7.3,3-6,1.6-8,2.8-3.6,6.7-.4,8.8,10.1,3.9,18,2.1c4.3-1,9.2-5.4,14.9-5.5,3.5-.1,10.3-.8,12.7-3.4s-.1-5-.8-8.3-.5-9.1-2.1-9v1.8c-.1.6-1.4,1.1-1.8,1.5l-1.5,1.5a5,5,0,0,1-2.1,1.7c-1.4.7-3.1.3-4.6-.1s.8-2.8.8-3,.2-.5.1-.7a.7.7,0,0,0-.4-.5A10,10,0,0,0,396.2,346.3Z"/><path class="z" d="M386.6,353.8s.5-1.3,2.7-1.6,4.4,1.1,6.1,2.6a1.4,1.4,0,0,1-.3,2.2h0a1.6,1.6,0,0,1-1.5-.2A9.8,9.8,0,0,0,386.6,353.8Z"/><path class="z" d="M381.4,356.4a3.8,3.8,0,0,1,3.2-1.5s4.2.3,6.7,2.9a1.3,1.3,0,0,1-.3,2.1h0a1.4,1.4,0,0,1-1.4-.2A10.1,10.1,0,0,0,381.4,356.4Z"/><path class="z" d="M375.8,358.6a4.3,4.3,0,0,1,3.3-1.3,11.9,11.9,0,0,1,6.4,2.9,1.3,1.3,0,0,1-.3,2.1h0a1.2,1.2,0,0,1-1.5-.2A9.7,9.7,0,0,0,375.8,358.6Z"/><path class="h" d="M428,100.4c4.7.6,10.3.9,14.8,1.5s10.4,6.7,11.8,16-5,39.6-5,39.6l2.1,34.6c-8.5,6.3-44.7,9.6-62.8-3.4,0,0,.4-59,1.8-68,2-12.4,5-20.2,19-21.1Z"/><path class="y" d="M460.3,175.4c-1.6,2.6-3.1,5.2-4.7,7.7-.6.9-1.1,1.9-1.8,2.8a6.3,6.3,0,0,1-1.1,1.2c-.8.5-2.4.2-3.3.2-4.5.2-9,.5-13.5,1-.7.1-1.6.2-2,.9a1.8,1.8,0,0,0,.7,2.2,4.8,4.8,0,0,0,2.4.7l3.9.5a3.3,3.3,0,0,1,1.6.5c1.4,1.1-1.3,2.5-2.2,3.1a25.3,25.3,0,0,1-5.1,2.8c-8.2,3.5-9.2,6-7.7,8.8s7,11.3,21.2,3.7c5.8-3.1,14.5-12.9,18.5-17.6,5.8-6.8,15.5-22,15.5-22,5.5-7.6,6.2-10.7,6.3-13.9s-17-27.4-22.8-35.9-8.6-18.8-23.4-20.2c0,0-5.6,17.8,3.7,29.4l21.6,30.1S462.4,171.9,460.3,175.4Z"/><path class="g" d="M475.9,133.7l-8.4-12.2c-11.8-17.1-10.8-20.3-27.7-20.5-1.5,2.3-2.4,12.2-.2,22.1s9,14.3,9,14.3l8.5,11.5s5.2-.2,11.4-4.8A18.8,18.8,0,0,0,475.9,133.7Z"/><path class="f" d="M439.2,55.4a8.4,8.4,0,0,0-7.9-3.7l-.9,21.4-1.4,8,.3,8.8a4.8,4.8,0,0,0,3.8-2.9c1.3-2.6,5-14.8,5-14.8h0C441.4,62.1,440.7,57.5,439.2,55.4Z"/><path class="y" d="M429.4,73.2a9,9,0,0,1,2.1-3.4c1.2-1.3,6.1-2.7,8.4,1.4s-1.6,9.7-4.5,11.4a4.4,4.4,0,0,1-5.9-.8v19.7h0c-1.7,4-9.5,7.6-14.1,7s-7.2-3.4-3.9-7.6l-.2-5.6s-5,1-7.4.7c-4.1-.4-6.8-3.5-8.2-7.8-2.4-6.9-3.4-12.6-2.4-26.5s18.7-16.3,28.5-10.8S429.4,73.2,429.4,73.2Z"/><path class="f" d="M387.8,45.9c-.5-3.3.7-6.9,4.2-8.1a7.4,7.4,0,0,1,7.7,1.3,7.1,7.1,0,0,1,5.6-4.4,7,7,0,0,1,6.4,3.1,7.4,7.4,0,0,1,4.1-2.8,7.9,7.9,0,0,1,5.9,1.1c1.4,1.1,3.1,3.1,2.7,5.5,2.8-1.1,5.7-.1,7.8,2.3a9.7,9.7,0,0,1,2,5.4,7.5,7.5,0,0,1-.4,3c-.4.9-1.3,1.5-1.5,2.5s-.7,1.9-.5,2.9.6,3.3.8,5a40.5,40.5,0,0,1,.4,4.9,3,3,0,0,1-1.2,2,7,7,0,0,0-2.1,3c-.4.7-.7,2.5-1.4,3s-2.4-3.4-2.5-4.3a48,48,0,0,1,.1-6.4,7.6,7.6,0,0,1-5.7-2.6,6.2,6.2,0,0,1-1.4-3.1,13.6,13.6,0,0,1-.2-2c-1.4,2.3-4.6,3.2-6.9,3-3.9-.3-5.2-2-5.8-3.2a9.1,9.1,0,0,1-1.5,3.3,8.8,8.8,0,0,1-3.5,2,6.5,6.5,0,0,1-6.3-1.8c-1.6,2.2-5.6,1.2-6.4.6s-2.7-3.2-2.9-5.7.8-5.2,3.5-6.2A9.1,9.1,0,0,1,387.8,45.9Z"/><path class="aa" d="M411.4,95.3s8.9-2.3,12-4.1a10,10,0,0,0,4.1-4.6,13.2,13.2,0,0,1-2.2,5.2c-2.1,3.1-13.8,5.9-13.8,5.9Z"/><path class="f" d="M411.9,72.6a1.9,1.9,0,0,0,2,1.9,2.1,2.1,0,0,0,1.9-2.1,2,2,0,0,0-2.1-1.9A1.9,1.9,0,0,0,411.9,72.6Z"/><path class="aa" d="M408.9,87a2.5,2.5,0,0,0,2.6,2.5,2.6,2.6,0,0,0,2.4-2.7,2.7,2.7,0,0,0-2.6-2.5A2.6,2.6,0,0,0,408.9,87Z"/><path class="f" d="M413.5,65.9l4.1,2a2.3,2.3,0,0,0-1.1-3.1A2.1,2.1,0,0,0,413.5,65.9Z"/><path class="f" d="M395.6,67.6l3.5-2.9a2.2,2.2,0,0,0-3.2-.4A2.4,2.4,0,0,0,395.6,67.6Z"/><path class="f" d="M396.6,72.2a1.9,1.9,0,1,0,3.8-.2,1.9,1.9,0,1,0-3.8.2Z"/><polygon class="aa" points="405.9 70 405.8 81.8 399.6 80 405.9 70"/><path class="w" d="M390.2,86.5l.3-.2a.4.4,0,0,0-.2-.6l-5.4-3.6a.4.4,0,0,0-.5.7l5.4,3.7Z"/><path class="w" d="M389.6,88.9l.4-.4c0-.2-.1-.5-.4-.5l-6.4-1.5a.4.4,0,0,0-.5.3.5.5,0,0,0,.3.6l6.4,1.5Z"/><path class="w" d="M383.7,93.1h.1l6.1-2.3a.4.4,0,1,0-.3-.8l-6.2,2.2a.5.5,0,0,0-.2.6C383.2,93,383.5,93.1,383.7,93.1Z"/><path class="w" d="M331.8,141.1a2.7,2.7,0,0,0,.8.7,1.5,1.5,0,0,0,1.9-.9l4.6-11.2a1.6,1.6,0,0,0-.9-1.9,1.4,1.4,0,0,0-1.9.9l-4.5,11.2A1.7,1.7,0,0,0,331.8,141.1Z"/><path class="w" d="M324.3,141a1.4,1.4,0,0,0,1.3.8,1.5,1.5,0,0,0,1.5-1.4l-.2-14.1a1.4,1.4,0,0,0-1.4-1.4,1.5,1.5,0,0,0-1.5,1.5l.2,14C324.2,140.6,324.2,140.9,324.3,141Z"/><path class="w" d="M311.6,133.2c0,.1.1.1.1.2l6.9,10a1.5,1.5,0,0,0,2,.4,1.5,1.5,0,0,0,.4-2l-6.9-10a1.4,1.4,0,0,0-2-.4A1.4,1.4,0,0,0,311.6,133.2Z"/></svg>